<?xml version="1.0"?>
<svg xmlns="http://www.w3.org/2000/svg" xmlns:xlink="http://www.w3.org/1999/xlink" version="1.1" id="Capa_1" x="0px" y="0px" viewBox="0 0 496.941 496.941" style="enable-background:new 0 0 496.941 496.941;" xml:space="preserve" width="512px" height="512px"><g><g>
	<g>
		<g>
			<path d="M489.412,481.882h-22.588v-24.094c0-4.518-3.012-7.529-7.529-7.529s-7.529,3.012-7.529,7.529v24.094h-47.435v-24.094     c0-4.518-3.012-7.529-7.529-7.529s-7.529,3.012-7.529,7.529v24.094h-47.435v-24.094c0-4.518-3.012-7.529-7.529-7.529     s-7.529,3.012-7.529,7.529v24.094h-48.188v-24.094c0-4.518-3.012-7.529-7.529-7.529s-7.529,3.012-7.529,7.529v24.094h-47.435     v-24.094c0-4.518-3.012-7.529-7.529-7.529s-7.529,3.012-7.529,7.529v24.094H153.6v-24.094c0-4.518-3.012-7.529-7.529-7.529     c-4.518,0-7.529,3.012-7.529,7.529v24.094H91.106v-24.094c0-4.518-3.012-7.529-7.529-7.529s-7.529,3.012-7.529,7.529v24.094     H15.059v-49.694h24.094c4.518,0,7.529-3.012,7.529-7.529s-3.012-7.529-7.529-7.529H15.059v-47.435h24.094     c4.518,0,7.529-3.012,7.529-7.529s-3.012-7.529-7.529-7.529H15.059V307.2h24.094c4.518,0,7.529-3.012,7.529-7.529     s-3.012-7.529-7.529-7.529H15.059v-47.435h24.094c4.518,0,7.529-3.012,7.529-7.529s-3.012-7.529-7.529-7.529H15.059v-47.435     h24.094c4.518,0,7.529-3.012,7.529-7.529s-3.012-7.529-7.529-7.529H15.059v-46.682h24.094c4.518,0,7.529-3.012,7.529-7.529     s-3.012-7.529-7.529-7.529H15.059V57.976h24.094c4.518,0,7.529-3.012,7.529-7.529c0-4.518-3.012-7.529-7.529-7.529H15.059V7.529     C15.059,3.012,12.047,0,7.529,0S0,3.012,0,7.529v481.882c0,4.518,3.012,7.529,7.529,7.529h481.882     c4.518,0,7.529-3.012,7.529-7.529S493.929,481.882,489.412,481.882z" data-original="#000000" class="active-path" data-old_color="#000000" fill="#FFFFFF"/>
			<path d="M81.318,231.906l125.741-94.871l39.153,36.894c3.012,2.259,6.776,3.012,9.788,0L392.282,63.247l-3.012,49.694     c0,4.518,3.012,7.529,6.776,8.282c4.518,0,7.529-3.012,8.282-6.776l3.765-66.259c0-4.518-3.765-8.282-8.282-8.282l-67.765,6.023     c-3.765,0-7.529,3.765-6.776,8.282c0,4.518,3.765,7.529,8.282,6.776l42.918-3.765L252.235,158.871l-39.153-36.894     c-3.012-2.259-6.776-3.012-9.788-0.753L72.282,219.859c-3.012,2.259-3.765,7.529-1.506,10.541     C73.788,234.165,78.306,234.165,81.318,231.906z" data-original="#000000" class="active-path" data-old_color="#000000" fill="#FFFFFF"/>
			<path d="M124.235,301.176c-4.518,0-7.529,3.012-7.529,7.529v100.141c0,4.518,3.012,7.529,7.529,7.529h42.918     c4.518,0,7.529-3.012,7.529-7.529V308.706c0-4.518-3.012-7.529-7.529-7.529H124.235z M159.624,401.318h-27.859v-85.082h27.859     V401.318z" data-original="#000000" class="active-path" data-old_color="#000000" fill="#FFFFFF"/>
			<path d="M213.835,271.059c-4.518,0-7.529,3.012-7.529,7.529v130.259c0,4.518,3.012,7.529,7.529,7.529h42.918     c4.518,0,7.529-3.012,7.529-7.529V278.588c0-4.518-3.012-7.529-7.529-7.529H213.835z M249.224,401.318h-27.859v-115.2h27.859     V401.318z" data-original="#000000" class="active-path" data-old_color="#000000" fill="#FFFFFF"/>
			<path d="M304.188,218.353c-4.518,0-7.529,3.012-7.529,7.529v182.965c0,4.518,3.012,7.529,7.529,7.529h42.165     c4.518,0,7.529-3.012,7.529-7.529V225.882c0-4.518-3.012-7.529-7.529-7.529H304.188z M338.824,401.318h-27.859V233.412h27.859     V401.318z" data-original="#000000" class="active-path" data-old_color="#000000" fill="#FFFFFF"/>
			<path d="M386.259,165.647v243.2c0,4.518,3.012,7.529,7.529,7.529h42.918c4.518,0,7.529-3.012,7.529-7.529v-243.2     c0-4.518-3.012-7.529-7.529-7.529h-42.918C389.271,158.118,386.259,161.882,386.259,165.647z M401.318,173.176h27.859v228.141     h-27.859V173.176z" data-original="#000000" class="active-path" data-old_color="#000000" fill="#FFFFFF"/>
		</g>
	</g>
</g></g> </svg>
