<svg xmlns="http://www.w3.org/2000/svg" width="753.909" height="1337.711" viewBox="0 0 753.909 1337.711">
  <g id="Group_1579" data-name="Group 1579" transform="translate(0.993 3.894)">
    <g id="Group_1578" data-name="Group 1578">
      <path id="Path_3696" data-name="Path 3696" d="M34,2788.816V2265.308c0-43,48.349-267.123,147.927-198.687s162.158,8.645,188.34-4.294c89.357-44.161,81.506-225.844,244.907-115.858s83.752-483.075,171.742-495.363V2788.816Z" transform="translate(-34 -1455)" fill="#ebf7ff"/>
      <path id="Path_3695" data-name="Path 3695" d="M1030.006,237.721a31.825,31.825,0,0,0-16.214-4.43c-20.115,0-31.766,24.967-50.328,23.274-29.4-2.683-42.652-42.348-74.318-42.348-29.275,0-43.649,33.956-70.69,36.955-15.931,1.766-27.586-17.36-44.89-17.36-32.643,0-35.513,12.972-65.573,22.345-8.628,2.691-15.23,19.506-24.979,19.506-11.459,0-21.632,3.6-28.159,11.6l375.151-.564Z" transform="translate(-280.004 623.659)" fill="#f0f0f0" opacity="0.655"/>
    </g>
    <g id="Group_1580" data-name="Group 1580">
      <path id="Path_3569" data-name="Path 3569" d="M910.612,238.876c-6.827,0-12.02,8.132-18.191,6.686-13.482-3.157-19.023-20.518-33.816-20.518-11.418,0-18.032,14.173-28.568,13.211-16.691-1.523-24.211-24.039-42.186-24.039-16.618,0-24.777,19.275-40.127,20.977-9.043,1-15.659-9.855-25.482-9.855a54.571,54.571,0,0,0-6.9.41c0,15.394-1.324,20.64-1.324,29.933H938.434A32.158,32.158,0,0,0,910.612,238.876Z" transform="translate(-715.009 375.45)" fill="#f0f0f0"/>
    </g>
  </g>
</svg>
