<svg xmlns="http://www.w3.org/2000/svg" viewBox="0 0 1037.7 204"><defs><style>.cls-1{fill:#fff;}</style></defs><title>Recurso 2@1220</title><g id="Capa_2" data-name="Capa 2"><g id="Capa_1-2" data-name="Capa 1"><path class="cls-1" d="M368.8,6.5V35.8H298.3c-13.8,0-24.4,3-31.8,9.1a38.38,38.38,0,0,0-11,11.3c-5.4,8.6-8,17.3-8,26.1s3.1,17.8,9.3,27.1c5,7.3,13,12.8,23.9,16.5,4,1.3,9.9,2,17.6,2h70.5v28.6l-3.3.6H301.4c-17.5,0-30.4-2.2-38.9-6.5a74.69,74.69,0,0,1-45.3-68.7,74.11,74.11,0,0,1,16.9-47.8c6.4-7.2,12.4-12.5,18.1-16,10.2-5.9,19.4-9.4,27.7-10.3,2.9-.9,14.6-1.4,34.9-1.4h54Z"/><path class="cls-1" d="M459.9,6.6h1q34.65,0,59.3,28.4,15.9,21.3,15.9,46.4v1c0,23.1-9.7,42.8-29.1,58.9q-21.15,15.75-46.3,15.7h-1q-34.5,0-59.1-28.2c-5.7-8-9.7-15.4-12-22.1a79.77,79.77,0,0,1-4.1-24.6v-1c0-22.7,9.4-42.2,28.1-58.3,12.7-9.1,24.2-14.1,34.7-15.3A82,82,0,0,1,459.9,6.6ZM414.6,81.7c0,13.1,5.1,24.6,15.4,34.5,9.1,7.8,18.7,11.7,28.7,11.7h2.9c8.1,0,16.3-2.8,24.7-8.3a47.09,47.09,0,0,0,17.6-24.2c1-2.6,1.7-7,2.1-13.3,0-12.8-5-24.1-14.9-34-9.3-8.3-19.6-12.4-30.7-12.4-13,0-24.6,5.4-34.7,16.3-4.3,5.6-6.9,10.3-8,14.2A42.76,42.76,0,0,0,414.6,81.7Z"/><path class="cls-1" d="M551.7,6.6h29.5l47.6,93,48.3-93h28.7l-77,154.1Z"/><path class="cls-1" d="M804.2,6.5h65.9V35.8H799.9c-12.7,0-22.3,2.3-28.8,7-8.9,4.7-15.7,13.7-20.5,27.1A55.89,55.89,0,0,0,749,81.6c0,11.4,4.2,22,12.8,32,5.6,5.4,10.8,8.9,15.7,10.7,5.4,2.4,12.7,3.7,22.1,3.7h70.7v29.3H803c-17.2,0-30-2.1-38.3-6.3Q737,138.85,724.9,111.3A74.58,74.58,0,0,1,719,81.9q0-33.6,26.7-57.5c11.6-8.8,22.2-14,31.6-15.6C782,7.3,791,6.5,804.2,6.5ZM791.5,67.4h78.7v29H791.5v-29Z"/><path class="cls-1" d="M1022.6,36.5a61.31,61.31,0,0,1,6.5,10.3,67.87,67.87,0,0,1,5.5,13.8c2.1,7,3.1,16.4,3.1,28.4v68h-30.2V85.7q0-36-32.5-48.1a53.4,53.4,0,0,0-13.1-2.2,52.68,52.68,0,0,0-13,2.2q-32.55,12.15-32.5,48.1V157H886.1V89c0-12,1-21.5,3.1-28.4a67.87,67.87,0,0,1,5.5-13.8,50.66,50.66,0,0,1,6.6-10.3Q925.6,6.65,961.8,6.6C986.1,6.6,1006.3,16.6,1022.6,36.5Z"/><path class="cls-1" d="M346.2,202.2a29.7,29.7,0,0,1-10.3,1.7c-5.6,0-10.1-1.6-13.6-4.8a16.09,16.09,0,0,1-5.3-12.5q0-8.4,5.7-13.5c3.8-3.4,8.6-5.1,14.5-5.1a29,29,0,0,1,8.9,1.3v2.5a25.12,25.12,0,0,0-9-1.6,17.73,17.73,0,0,0-12.4,4.4c-3.2,2.9-4.8,6.9-4.8,11.8,0,4.7,1.5,8.4,4.6,11.2a16.77,16.77,0,0,0,11.6,4.1,25.26,25.26,0,0,0,10.1-1.9Z"/><path class="cls-1" d="M366.3,204c-4.2,0-7.6-1.2-10-3.6a12.28,12.28,0,0,1-3.7-9.3q0-6.15,3.9-9.6a14.85,14.85,0,0,1,10.2-3.5c4.1,0,7.4,1.2,9.8,3.5s3.6,5.5,3.6,9.6a12.13,12.13,0,0,1-3.7,9.3C373.9,202.8,370.6,204,366.3,204Zm.2-23.9a11.72,11.72,0,0,0-8.2,2.9c-2.1,1.9-3,4.7-3,8.2a10.55,10.55,0,0,0,3,7.8c2,2,4.7,2.9,8.1,2.9s6.2-1,8.1-2.9,2.8-4.6,2.8-8-.9-6.2-2.8-8.1S369.9,180.1,366.5,180.1Z"/><path class="cls-1" d="M423.6,203.4V188.5c0-3.1-.6-5.3-1.7-6.5s-2.9-1.9-5.4-1.9a7.79,7.79,0,0,0-5.9,2.5,8.52,8.52,0,0,0-2.5,6.3v14.5h-2.6v-15c0-5.5-2.5-8.3-7.4-8.3a7.64,7.64,0,0,0-5.9,2.5,9.16,9.16,0,0,0-2.4,6.5v14.3h-2.6V178.7h2.6v4.1h.1a10,10,0,0,1,8.9-4.7,8.85,8.85,0,0,1,5.4,1.6,7.28,7.28,0,0,1,3,4.1,9.9,9.9,0,0,1,3.9-4.2,10.58,10.58,0,0,1,5.5-1.5c6.3,0,9.5,3.3,9.5,10v15.3Z"/><path class="cls-1" d="M471.2,203.4V188.5c0-3.1-.6-5.3-1.7-6.5s-2.9-1.9-5.4-1.9a7.79,7.79,0,0,0-5.9,2.5,8.52,8.52,0,0,0-2.5,6.3v14.5h-2.6v-15c0-5.5-2.5-8.3-7.4-8.3a7.64,7.64,0,0,0-5.9,2.5,9.16,9.16,0,0,0-2.4,6.5v14.3h-2.6V178.7h2.6v4.1h.1a10,10,0,0,1,8.9-4.7,8.85,8.85,0,0,1,5.4,1.6,7.28,7.28,0,0,1,3,4.1,9.9,9.9,0,0,1,3.9-4.2,10.58,10.58,0,0,1,5.5-1.5c6.3,0,9.5,3.3,9.5,10v15.3Z"/><path class="cls-1" d="M494.2,204c-4.2,0-7.6-1.2-10-3.6a12.28,12.28,0,0,1-3.7-9.3q0-6.15,3.9-9.6a14.85,14.85,0,0,1,10.2-3.5c4.1,0,7.4,1.2,9.8,3.5s3.6,5.5,3.6,9.6a12.13,12.13,0,0,1-3.7,9.3C501.8,202.8,498.4,204,494.2,204Zm.2-23.9a11.72,11.72,0,0,0-8.2,2.9c-2.1,1.9-3,4.7-3,8.2a10.55,10.55,0,0,0,3,7.8c2,2,4.7,2.9,8.1,2.9s6.2-1,8.1-2.9,2.8-4.6,2.8-8-.9-6.2-2.8-8.1S497.8,180.1,494.4,180.1Z"/><path class="cls-1" d="M535.6,203.4v-4.5h-.1a9,9,0,0,1-4.2,3.7A14.23,14.23,0,0,1,525,204a11.76,11.76,0,0,1-8.7-3.3c-2.3-2.2-3.4-5.3-3.4-9.2a12.69,12.69,0,0,1,13.3-13.4c4.3,0,7.4,1.5,9.3,4.6h.1V166.9h2.6v36.6h-2.6Zm0-15.1a7.88,7.88,0,0,0-2.6-5.9,9.66,9.66,0,0,0-6.9-2.4,10.18,10.18,0,0,0-7.5,3,11,11,0,0,0-3,8.2c0,3.4.9,6.1,2.7,7.9a9,9,0,0,0,6.9,2.8c3.3,0,5.9-.9,7.7-2.6a8.54,8.54,0,0,0,2.7-6.4v-4.6Z"/><path class="cls-1" d="M548.8,172.4a2.46,2.46,0,0,1-1.5-.5,1.91,1.91,0,0,1-.7-1.4,1.46,1.46,0,0,1,.7-1.3,2.69,2.69,0,0,1,1.5-.5,2.46,2.46,0,0,1,1.5.5,1.71,1.71,0,0,1,.7,1.3,1.46,1.46,0,0,1-.7,1.3A2,2,0,0,1,548.8,172.4Zm-1.3,31V178.7h2.6v24.7Z"/><path class="cls-1" d="M570.9,203a11.27,11.27,0,0,1-3.8.8c-4.3,0-6.4-2.2-6.4-6.6V180.6h-5.2v-2h5.2v-6.4c.4-.1.8-.3,1.3-.4a5,5,0,0,0,1.3-.4v7.2h7.6v2h-7.6v16.3a6.1,6.1,0,0,0,.9,3.7c.6.8,1.7,1.1,3.2,1.1a8.25,8.25,0,0,0,3.5-.9Z"/><path class="cls-1" d="M577.9,172.4a2.46,2.46,0,0,1-1.5-.5,1.91,1.91,0,0,1-.7-1.4,1.46,1.46,0,0,1,.7-1.3,2.69,2.69,0,0,1,1.5-.5,2.46,2.46,0,0,1,1.5.5,1.71,1.71,0,0,1,.7,1.3,1.46,1.46,0,0,1-.7,1.3A2,2,0,0,1,577.9,172.4Zm-1.3,31V178.7h2.6v24.7Z"/><path class="cls-1" d="M589.2,191.1c0,3.4.9,6.1,2.8,8a10.09,10.09,0,0,0,7.6,2.9,16.77,16.77,0,0,0,9.5-3.1v2.4A19.33,19.33,0,0,1,599,204a12.37,12.37,0,0,1-9.1-3.4c-2.3-2.3-3.5-5.5-3.5-9.7a12.6,12.6,0,0,1,3.6-9.1,12.35,12.35,0,0,1,9.4-3.7c3.6,0,6.4,1.1,8.3,3.2s2.9,5.1,2.9,8.8v1Zm18.7-2q-.15-4.35-2.4-6.6a8,8,0,0,0-6.2-2.4,10.36,10.36,0,0,0-6.8,2.3,10.23,10.23,0,0,0-3.3,6.7Z"/><path class="cls-1" d="M616.3,202.3v-2.7a12,12,0,0,0,3.6,1.7,13.45,13.45,0,0,0,3.6.6c4.5,0,6.8-1.6,6.8-4.8a3.47,3.47,0,0,0-1.5-2.8,17,17,0,0,0-4.9-2.4,15.85,15.85,0,0,1-5.8-3.2,5.44,5.44,0,0,1-1.7-4,5.8,5.8,0,0,1,2.7-4.9,11.77,11.77,0,0,1,6.7-1.9,14.07,14.07,0,0,1,6.4,1.3v2.5a13.76,13.76,0,0,0-6.7-1.8,7.38,7.38,0,0,0-4.6,1.3,3.76,3.76,0,0,0-1.8,3.3,4.17,4.17,0,0,0,1.1,2.9,15.06,15.06,0,0,0,4.9,2.5c3,1.2,5.1,2.2,6.2,3.2A5.07,5.07,0,0,1,633,197a6,6,0,0,1-2.6,4.9c-1.7,1.3-4.1,1.9-7.1,1.9A11.93,11.93,0,0,1,616.3,202.3Z"/><path class="cls-1" d="M669.7,203.4h-2.1l-14.8-34.6h3.1l11.8,27.9a17.28,17.28,0,0,1,1,3.3h.1a23.55,23.55,0,0,1,1.2-3.3l12.5-27.9h3Z"/><path class="cls-1" d="M686.3,191.1c0,3.4.9,6.1,2.8,8a10.09,10.09,0,0,0,7.6,2.9,16.77,16.77,0,0,0,9.5-3.1v2.4a19.33,19.33,0,0,1-10.1,2.7,12.37,12.37,0,0,1-9.1-3.4c-2.3-2.3-3.5-5.5-3.5-9.7a12.6,12.6,0,0,1,3.6-9.1,12.35,12.35,0,0,1,9.4-3.7c3.6,0,6.4,1.1,8.3,3.2s2.9,5.1,2.9,8.8v1Zm18.7-2q-.15-4.35-2.4-6.6a8.35,8.35,0,0,0-6.2-2.4,10.36,10.36,0,0,0-6.8,2.3,10.23,10.23,0,0,0-3.3,6.7Z"/><path class="cls-1" d="M734.6,203.4V189c0-5.9-2.5-8.9-7.5-8.9a9.68,9.68,0,0,0-6.9,2.6,8.6,8.6,0,0,0-2.7,6.5v14.2h-2.6V178.7h2.6v4.5h.1q3.15-5.1,9.9-5.1a9.43,9.43,0,0,1,7.2,2.7c1.7,1.8,2.5,4.3,2.5,7.6v15Z"/><path class="cls-1" d="M746.6,191.1c0,3.4.9,6.1,2.8,8A10.09,10.09,0,0,0,757,202a16.77,16.77,0,0,0,9.5-3.1v2.4a19.33,19.33,0,0,1-10.1,2.7,12.37,12.37,0,0,1-9.1-3.4c-2.3-2.3-3.5-5.5-3.5-9.7a12.6,12.6,0,0,1,3.6-9.1,12.35,12.35,0,0,1,9.4-3.7c3.6,0,6.4,1.1,8.3,3.2s2.9,5.1,2.9,8.8v1Zm18.7-2q-.15-4.35-2.4-6.6a8.35,8.35,0,0,0-6.2-2.4,10.36,10.36,0,0,0-6.8,2.3,10.23,10.23,0,0,0-3.3,6.7Z"/><path class="cls-1" d="M776.5,201.3h18.7v2h-23v-.8l19.3-21.9H773.6v-2h22.3v.6Z"/><path class="cls-1" d="M813.8,204c-4.2,0-7.6-1.2-10-3.6a12.28,12.28,0,0,1-3.7-9.3q0-6.15,3.9-9.6a14.85,14.85,0,0,1,10.2-3.5c4.1,0,7.4,1.2,9.8,3.5s3.6,5.5,3.6,9.6a12.13,12.13,0,0,1-3.7,9.3C821.4,202.8,818,204,813.8,204Zm.2-23.9a11.72,11.72,0,0,0-8.2,2.9c-2.1,1.9-3,4.7-3,8.2a10.55,10.55,0,0,0,3,7.8c2,2,4.7,2.9,8.1,2.9s6.2-1,8.1-2.9,2.8-4.6,2.8-8-.9-6.2-2.8-8.1S817.4,180.1,814,180.1Z"/><path class="cls-1" d="M834.7,203.4V166.8h2.6v36.6Z"/><path class="cls-1" d="M863.9,203.4v-5h-.1a10.25,10.25,0,0,1-4,4,11.77,11.77,0,0,1-5.9,1.5,9.9,9.9,0,0,1-6.5-2,6.2,6.2,0,0,1-2.4-5c0-4.3,3.4-6.9,10.1-7.8L864,188c0-5.3-2.3-8-7-8a15.54,15.54,0,0,0-9.3,3.3v-2.7a18.58,18.58,0,0,1,4.4-1.9,20,20,0,0,1,5.2-.8q4.5,0,6.9,2.4t2.4,6.9v16.1h-2.7Zm-8-12.3c-3,.4-5.2,1-6.4,1.8a4.53,4.53,0,0,0-1.8,4,4.46,4.46,0,0,0,1.7,3.6,6.89,6.89,0,0,0,4.8,1.4,10.1,10.1,0,0,0,7-2.6,9.19,9.19,0,0,0,2.8-6.8v-2.4Z"/><path class="cls-1" d="M894.9,203.4V189c0-5.9-2.5-8.9-7.5-8.9a9.68,9.68,0,0,0-6.9,2.6,8.6,8.6,0,0,0-2.7,6.5v14.2h-2.6V178.7h2.6v4.5h.1q3.15-5.1,9.9-5.1a9.43,9.43,0,0,1,7.2,2.7c1.7,1.8,2.5,4.3,2.5,7.6v15Z"/><path class="cls-1" d="M917.9,204c-4.2,0-7.6-1.2-10-3.6a12.28,12.28,0,0,1-3.7-9.3q0-6.15,3.9-9.6a14.85,14.85,0,0,1,10.2-3.5c4.1,0,7.4,1.2,9.8,3.5s3.6,5.5,3.6,9.6a12.13,12.13,0,0,1-3.7,9.3C925.5,202.8,922.1,204,917.9,204Zm.2-23.9a11.72,11.72,0,0,0-8.2,2.9c-2.1,1.9-3,4.7-3,8.2a10.55,10.55,0,0,0,3,7.8c2,2,4.7,2.9,8.1,2.9s6.2-1,8.1-2.9,2.8-4.6,2.8-8-.9-6.2-2.8-8.1S921.5,180.1,918.1,180.1Z"/><path class="cls-1" d="M937.3,202.3v-2.7a12,12,0,0,0,3.6,1.7,13.45,13.45,0,0,0,3.6.6c4.5,0,6.8-1.6,6.8-4.8a3.47,3.47,0,0,0-1.5-2.8,17,17,0,0,0-4.9-2.4,15.85,15.85,0,0,1-5.8-3.2,5.44,5.44,0,0,1-1.7-4,5.8,5.8,0,0,1,2.7-4.9,11.05,11.05,0,0,1,6.7-1.9,14.07,14.07,0,0,1,6.4,1.3v2.5a13.76,13.76,0,0,0-6.7-1.8,7.38,7.38,0,0,0-4.6,1.3,3.76,3.76,0,0,0-1.8,3.3,4.17,4.17,0,0,0,1.1,2.9,15.06,15.06,0,0,0,4.9,2.5c3,1.2,5.1,2.2,6.2,3.2A5.07,5.07,0,0,1,954,197a6,6,0,0,1-2.6,4.9c-1.7,1.3-4.1,1.9-7.2,1.9A11.78,11.78,0,0,1,937.3,202.3Z"/><path class="cls-1" d="M95.5,0A95.5,95.5,0,1,0,191,95.5,95.56,95.56,0,0,0,95.5,0Zm30.9,170.9L110,138H73.5c-11.4,0-19.8-1.4-25.3-4.2a48.35,48.35,0,0,1-25.5-25.4,47.77,47.77,0,0,1-3.9-19.2,48.46,48.46,0,0,1,11-31.1A55.89,55.89,0,0,1,41.6,47.7c6.6-3.9,12.6-6.1,18-6.7,1.9-.6,9.5-.9,22.7-.9h35.1v19H71.5c-9,0-15.9,2-20.7,5.9a24.81,24.81,0,0,0-7.1,7.3,31.54,31.54,0,0,0-5.2,17c0,5.7,2,11.6,6.1,17.6,3.3,4.8,8.5,8.3,15.6,10.7,2.6.9,6.4,1.3,11.4,1.3h29L76.5,70.6H95.7l30.9,60.5L158,70.6h18.7Z"/></g></g></svg>